<?xml version="1.0" encoding="utf-8"?>
<!-- Generator: Adobe Illustrator 22.1.0, SVG Export Plug-In . SVG Version: 6.00 Build 0)  -->
<svg version="1.1" xmlns="http://www.w3.org/2000/svg" xmlns:xlink="http://www.w3.org/1999/xlink" x="0px" y="0px"
	 viewBox="0 0 2272 1872" style="enable-background:new 0 0 2272 1872;" xml:space="preserve">
<style type="text/css">
	.st0{fill:none;}
	.st1{fill:#D5D3EA;}
	.st2{fill:#CC5C46;}
	.st3{fill:#273941;}
	.st4{fill:#9B404F;}
	.st5{fill:#C17894;}
	.st6{fill:#1A272B;}
	.st7{fill:#252A51;}
	.st8{fill:#1C2B30;}
	.st9{fill:#FCD96A;}
	.st10{fill:#EF7C2E;}
	.st11{fill:#F69981;}
	.st12{fill:#6B3D44;}
	.st13{fill:#C6616E;}
	.st14{fill:#512D34;}
	.st15{fill:#8889C2;}
	.st16{fill:#FACDDC;}
	.st17{fill:#6C99A3;}
	.st18{fill:#9CC8DA;}
</style>
<g id="Background">
	<g>
		<g>
			<rect x="0" class="st0" width="2272" height="1872"/>
		</g>
	</g>
	<g id="Layer_1_1_">
	</g>
	<g id="Layer_2">
	</g>
	<g id="Layer_1_2_">
	</g>
	<g id="Layer_2_1_">
	</g>
</g>
<g id="object">
	<g>
		<ellipse class="st1" cx="1150.1" cy="1547.3" rx="850.8" ry="32.8"/>
		<g>
			<path class="st2" d="M1315.1,1220.7l-41,39.7l21.6,13.4l15.6-4.2v10.3c0,0,91.3,51,89.2,41.3s-60.1-73.6-60.1-73.6l21-20.3
				l-33.3-30.2L1315.1,1220.7z"/>
			<path class="st3" d="M1400.5,1321.1c-1.2-5.3-19-26.7-34.9-45.1c-1.5-0.5-3.1-0.9-4.7-1.2c-7.2-1.6-14.6-2.1-21.5-4.4
				c-7-2.3-13.7-6.7-16.4-13.6c-1.7-4.4-1.5-9.5-3.3-13.9c-2.5-6.2-8.1-10.1-14.4-12.8l-31.3,30.3l21.6,13.4l15.6-4.2v10.3
				C1311.3,1279.8,1402.6,1330.9,1400.5,1321.1z"/>
			<path class="st2" d="M1295.7,758.6c0,0,301.8,184.3,303.3,215.6c1.6,31.3-252.3,286.2-252.3,286.2l-31.7-39.7l118.3-214.2
				l-231.4-163.4L1295.7,758.6z"/>
			<path class="st4" d="M1483.9,954.6c20.3-12.5,42.8-21.1,65.6-28.4c-86-65.1-253.8-167.6-253.8-167.6l-93.8,84.5l230.7,162.8
				C1444.4,984.8,1463.1,967.4,1483.9,954.6z"/>
		</g>
		<g>
			<path class="st5" d="M754.9,1220.7l-35.9,39.7l18.9,13.4l13.6-4.2v10.3c0,0,80,51,78.1,41.3s-52.6-73.6-52.6-73.6l18.4-20.3
				l-29.1-30.2L754.9,1220.7z"/>
			<path class="st3" d="M829.6,1321.1c-1-5.3-16.6-26.7-30.5-45.1c-1.4-0.5-2.7-0.9-4.1-1.2c-6.3-1.6-12.7-2.1-18.8-4.4
				c-6.1-2.3-12-6.7-14.3-13.6c-1.5-4.4-1.3-9.5-2.9-13.9c-2.1-6.2-7.1-10.1-12.6-12.8l-27.4,30.3l18.9,13.4l13.6-4.2v10.3
				C751.6,1279.8,831.5,1330.9,829.6,1321.1z"/>
			<path class="st5" d="M737.9,758.6c0,0,264.1,184.3,265.5,215.6c1.4,31.3-220.8,286.2-220.8,286.2l-27.8-39.7l103.6-214.2
				L655.8,843.2L737.9,758.6z"/>
			<path class="st6" d="M902.7,954.6c17.8-12.5,37.4-21.1,57.4-28.4c-75.3-65.1-222.2-167.6-222.2-167.6l-82.1,84.5L857.7,1006
				C868.1,984.8,884.4,967.4,902.7,954.6z"/>
		</g>
		<g>
			<g>
				<path class="st7" d="M767.5,1290.8c-3.1-1.8-7-1.2-9.4,1.4c-3.4,3.8-2.3,9.8,2.2,12c25.1,12.3,87,49,87,49h29.3L767.5,1290.8z"
					/>
				<path class="st3" d="M785.2,1301.2l-67.8-35.3c-5.3-2.7-11.7-0.7-14.5,4.6l0,0c-2.7,5.3-0.7,11.7,4.6,14.5l67.8,35.3
					c5.3,2.7,11.7,0.7,14.5-4.6l0,0C792.5,1310.4,790.5,1304,785.2,1301.2z"/>
				<g>
					<path class="st3" d="M1766.9,1542.6c-60.5,0-117.4-23.5-160.1-66.4s-66.4-99.7-66.4-160.1c0-60.5,23.5-117.4,66.4-160.1
						s99.7-66.4,160.1-66.4c60.5,0,117.4,23.5,160.1,66.4s66.4,99.7,66.4,160.1c0,60.5-23.5,117.4-66.4,160.1
						S1827.5,1542.6,1766.9,1542.6z M1766.9,1116.9c-53.2,0-103.3,20.7-140.9,58.4c-37.6,37.6-58.4,87.7-58.4,140.9
						c0,53.2,20.7,103.3,58.4,140.9c37.6,37.6,87.7,58.4,140.9,58.4c53.2,0,103.3-20.7,140.9-58.4c37.6-37.6,58.4-87.7,58.4-140.9
						c0-53.2-20.7-103.3-58.4-140.9C1870.2,1137.6,1820.2,1116.9,1766.9,1116.9z"/>
				</g>
				<path class="st3" d="M1614.7,911.7c-1-2.8-3.7-4.6-6.6-4.3l-12.8,1.2c-4,0.4-6.6,4.2-5.6,8.1l20.2,72.3l28.8-6.2L1614.7,911.7z"
					/>
				<polygon class="st8" points="1599.3,964 1595.8,950.6 1630.9,945.5 1633.8,961.7 				"/>
				<g>
					<path class="st3" d="M567,1541.8c-64.6,0-125.3-25.1-171-70.9c-45.7-45.7-70.9-106.4-70.9-171s25.1-125.3,70.9-171
						c45.7-45.7,106.4-70.9,171-70.9s125.3,25.1,171,70.9c45.7,45.7,70.9,106.4,70.9,171s-25.1,125.3-70.9,171
						C692.3,1516.7,631.6,1541.8,567,1541.8z M567,1085.3c-57.3,0-111.2,22.3-151.7,62.9c-40.5,40.5-62.9,94.4-62.9,151.7
						c0,57.3,22.3,111.2,62.9,151.7s94.4,62.9,151.7,62.9s111.2-22.3,151.7-62.9s62.9-94.4,62.9-151.7c0-57.3-22.3-111.2-62.9-151.7
						C678.2,1107.7,624.3,1085.3,567,1085.3z"/>
				</g>
				<path class="st7" d="M1300.4,1287c-3.1-1.8-7-1.2-9.4,1.4c-3.4,3.8-2.3,9.8,2.2,12c25.1,12.3,87,49,87,49h29.3L1300.4,1287z"/>
				<path class="st3" d="M1336.9,1289.2l-74.1-18.8c-5.7-1.5-11.6,2-13,7.8l0,0c-1.5,5.7,2,11.6,7.8,13l74.1,18.8
					c5.7,1.5,11.6-2,13-7.8l0,0C1346.2,1296.5,1342.7,1290.7,1336.9,1289.2z"/>
				<path class="st9" d="M1632.2,953.5l-859.8,33.4L553,1296.7l317.4,67.3c3,0.6,5.9,0.9,8.8,0.9c13.6,0,26.7-5.9,35.7-16.5
					l429.9-11.1l302.5-277.3l110.4,253.6l18.5-7.6L1632.2,953.5z M1613.3,1045.4l-275.3,270.8l-438.4,9.5
					c-6.2,7.4-16,20.4-25.5,18.6l-288.8-58.6l198.8-279.4l796.7-28.9c14.4-1,27.8,7.6,32.8,21.2l5.4,14.6
					C1623.1,1024,1621,1036.4,1613.3,1045.4z"/>
				<g>
					<path class="st10" d="M942.4,1324.4l-42.7,1.3c-6.2,7.4-16,20.4-25.5,18.6l-70.5-13.6c-3.1,6.1-4.9,12.7-5,19.5l71.7,13.8
						c3,0.6,5.9,0.9,8.8,0.9c13.6,0,26.7-5.9,35.7-16.5l33-0.1C948.4,1340.4,944.9,1331.7,942.4,1324.4z"/>
				</g>
				<g>
					
						<rect x="792.7" y="858.7" transform="matrix(0.9613 -0.2754 0.2754 0.9613 -275.009 264.0396)" class="st9" width="20" height="505.2"/>
				</g>
				<path class="st10" d="M759.3,923.5l-16.6-57.8l-19.2,5.5l14.4,50.3c3.1,0.6,6.2,1,9.3,1.3C751.2,923.2,755.3,923.4,759.3,923.5z
					"/>
				<circle class="st3" cx="567" cy="1300" r="49.2"/>
				<circle class="st3" cx="1766.9" cy="1309.7" r="49.2"/>
				<path class="st3" d="M700.6,898.2c5.4-0.8,10.7-2.7,16.2-3.8c5.8-1.1,11.7-1.2,17.5-1c36.9,0.8,73.3,10.3,110.3,8.8
					c3.3-0.2,7-0.6,8.9-3.3c1.7-2.6,1-6.2-1-8.5c-1.9-2.3-4.7-3.8-7.5-5.1c-21.1-10-43.5-17.2-65.8-24.3
					c-34.5-11-70.5-25.4-106.5-30.6c-9.8-1.4-24.9-1.4-29.1,9.8c-4.6,12.2,6.6,31.2,14.3,40.1C668.2,892.3,684.3,900.5,700.6,898.2z
					"/>
				<path class="st6" d="M705,879.6c-12.9-0.9-26-1.4-38.2-5.7c-8.3-2.9-16.3-8-21.7-14.8c3.1,8.3,8.5,16.3,12.7,21.2
					c10.4,12,26.6,20.3,42.8,17.9c5.4-0.8,10.7-2.7,16.2-3.8c5.8-1.1,11.7-1.2,17.5-1c34.9,0.8,69.3,9.3,104.1,9
					C794.5,891.7,750.1,882.9,705,879.6z"/>
				<path class="st9" d="M1118.4,902.4c-5.8,0-10.6,4.7-10.6,10.6c0,5.8,4.7,10.6,10.6,10.6h120.4v-21.2H1118.4z"/>
				<path class="st6" d="M1157.7,902.4h-49.8c-6,0-10.9,5-10.6,11.1c0.3,5.7,5.2,10.1,10.9,10.1h49.5c5.8,0,10.6-4.7,10.6-10.6
					C1168.2,907.1,1163.5,902.4,1157.7,902.4z"/>
				<g>
					
						<rect x="1283" y="855" transform="matrix(0.9613 -0.2754 0.2754 0.9613 -255.0264 398.949)" class="st9" width="20" height="505.2"/>
				</g>
				<path class="st10" d="M1246.9,910l-13.7-48l-19.2,5.5l12,41.8C1232.8,909.9,1239.8,910.1,1246.9,910z"/>
				<path class="st3" d="M1191,894.5c5.4-0.8,10.7-2.7,16.2-3.8c5.8-1.1,11.7-1.2,17.5-1c36.9,0.8,73.3,10.3,110.3,8.8
					c3.3-0.2,7-0.6,8.9-3.3c1.7-2.6,1-6.2-1-8.5c-1.9-2.3-4.7-3.8-7.5-5.1c-21.1-10-43.5-17.2-65.8-24.3
					c-34.5-11-70.5-25.4-106.5-30.6c-9.8-1.4-24.9-1.4-29.1,9.8c-4.6,12.2,6.6,31.2,14.3,40.1C1158.5,888.6,1174.7,896.8,1191,894.5
					z"/>
				<path class="st6" d="M1189.2,873.8c-10.9-0.9-21.9-1.8-32.1-5.5c-10-3.6-19.3-10.4-23.7-20c2.1,10.5,9.3,22,14.8,28.3
					c10.4,12,26.6,20.3,42.8,17.9c5.4-0.8,10.7-2.7,16.2-3.8c5.8-1.1,11.7-1.2,17.5-1c36.9,0.8,73.3,10.3,110.3,8.8
					c2.2-0.1,4.6-0.4,6.5-1.3C1291.3,886.1,1240.4,878.2,1189.2,873.8z"/>
				<g>
					<circle class="st3" cx="881.8" cy="1364.9" r="52.1"/>
					<path class="st7" d="M885.1,1351.5c-3.1-1.8-7-1.2-9.4,1.4c-3.4,3.8-2.3,9.8,2.2,12c25.1,12.3,87,49,87,49h29.3L885.1,1351.5z"
						/>
					<path class="st3" d="M1016.7,1395.5h-76.5c-5.9,0-10.7,4.8-10.7,10.7l0,0c0,5.9,4.8,10.7,10.7,10.7h76.5
						c5.9,0,10.7-4.8,10.7-10.7l0,0C1027.4,1400.3,1022.6,1395.5,1016.7,1395.5z"/>
				</g>
				<g>
					<circle class="st3" cx="1367.2" cy="1353.1" r="52.1"/>
					<path class="st7" d="M1370.5,1339.8c-3.1-1.8-7-1.2-9.4,1.4c-3.4,3.8-2.3,9.8,2.2,12c25.1,12.3,87,49,87,49h29.3L1370.5,1339.8
						z"/>
					<path class="st3" d="M1502.1,1383.7h-76.5c-5.9,0-10.7,4.8-10.7,10.7l0,0c0,5.9,4.8,10.7,10.7,10.7h76.5
						c5.9,0,10.7-4.8,10.7-10.7l0,0C1512.8,1388.5,1508,1383.7,1502.1,1383.7z"/>
				</g>
			</g>
			<g>
				<path class="st8" d="M1706.6,1000.6c-3.8,0-7.4-2.2-8.9-6c-2-4.9,0.3-10.5,5.3-12.6l53.3-21.9c7.6-3.1,13.5-9,16.6-16.7
					c3-7.7,2.8-16-0.6-23.5l-1.2-2.6c-5.8-12.5-19.2-19.5-32.7-17.1l-159,29.1c-5.2,1-10.2-2.5-11.2-7.7c-1-5.2,2.5-10.2,7.7-11.2
					l159-29.1c22.2-4.1,44.3,7.4,53.6,27.9l1.2,2.6c5.6,12.3,6,26,1,38.6c-5,12.6-14.7,22.3-27.1,27.5l-53.3,21.9
					C1709,1000.4,1707.8,1000.6,1706.6,1000.6z"/>
			</g>
		</g>
		<g>
			<path class="st2" d="M1731.9,972.3c-1-3.7-2.2-7.5-5-10c-0.9-0.8-1.9-1.4-2.9-1.9l1-0.3c0,0-152.2-82.5-159.4-103
				c-5.1-14.3-26-94.6-38.1-141.5c-9.5-36.8-49.2-55.3-81.2-37.3c-0.5,0.3-1.1,0.6-1.6,1c-25.1,15-34.9,47.8-23.2,75.5
				c20.6,48.9,59.1,137.8,75.9,147.3c27.7,15.7,175.7,60.5,193.2,65.8c1,2.8,2.6,5.8,3.6,8.6c3.2,8.8,4.2,18.4,7.5,27.2
				c0.4,0.9,0.8,1.9,1.6,2.5c1.1,0.7,2.6,0.3,3.7-0.4c4.4-2.7,5.8-9.2,10.4-11.3c1.8-0.8,3.7-0.9,5.6-1.4c1.9-0.5,3.7-1.9,4-3.9
				c0.2-1.5-0.5-3.3,0.5-4.4c0.6-0.7,1.6-0.8,2.4-1.2c1.9-0.8,2.9-3,3.1-5.1C1733.1,976.4,1732.5,974.3,1731.9,972.3z"/>
			<g>
				<path class="st11" d="M1347,1001.2c60.4,57.4,112.4,106.4,112.4,106.4l-33.8,276.2l27.5,3.4l10.7-3.4l19,9.4
					c0,0,97.8,13.2,97.9,5.1c0.1-8.1-92.1-45.1-92.1-45.1s70.8-255.6,60.6-282.6c-5.4-14.3-47.1-75.7-85.2-130.3
					c-19.6,4-38.6,11.2-56.4,20.4C1386.1,971.8,1366.1,985.9,1347,1001.2z"/>
				<path class="st3" d="M1514.2,1363.7c-5.2,2.8-10.2,5.8-15.7,8c-14.6,5.7-32,3.7-45-5.2c-2.5-1.7-4.9-3.7-7.8-4.7
					c-4.1-1.4-8.7-0.5-13-0.3c-1.5,0.1-2.9,0.1-4.4,0l-2.7,22.3l27.5,3.4l10.7-3.4l19,9.4c0,0,97.8,13.2,97.9,5.1
					C1580.9,1392.9,1541.5,1375.3,1514.2,1363.7z"/>
				<path class="st12" d="M1588.1,708.7c12.2-37.5-32.6-63-32.6-63s-121.3-62.8-220.6-12.6c-26.7,13.5-52.7,32-76,52.1
					c6.5,19.9,17.8,38.2,29.4,55.7c17.5,26.4,36.2,52.3,59.7,73.4c15.5,13.9,33.3,25.6,52.6,33.1
					C1417.1,837.9,1576.5,744.2,1588.1,708.7z"/>
				<path class="st13" d="M1288.3,740.9c-11.6-17.6-22.9-35.8-29.4-55.7c-63.3,54.7-107.1,122.2-94.3,138.7
					c10,12.7,103.4,102.2,182.4,177.3c19.1-15.2,39.1-29.3,60.8-40.5c17.8-9.2,36.8-16.4,56.4-20.4c-33.9-48.6-64.9-91.9-64.9-91.9
					s0.5-0.3,1.4-0.8c-19.3-7.5-37.1-19.2-52.6-33.1C1324.4,793.2,1305.7,767.3,1288.3,740.9z"/>
				<path class="st14" d="M1324.9,790.6c50-17.6,88.3-67.2,141.1-79.8c21.3-5.1,43.8-3.8,65.2-8.5c19.8-4.4,38.2-14.1,53.3-27.6
					c-9.8-18.1-29-29.1-29-29.1s-121.3-62.8-220.6-12.6c-26.7,13.5-52.7,32-76,52.1c6.5,19.9,17.8,38.2,29.4,55.7
					C1299.6,758.1,1311.5,775,1324.9,790.6z"/>
				<path class="st4" d="M1303.2,796c7.5-1,14.7-2.9,21.7-5.3c-13.4-15.6-25.3-32.5-36.6-49.7c-11.6-17.6-22.9-35.8-29.4-55.7
					c-30.5,26.4-56.5,55.7-73.8,80.9c11.6,1.8,23.5,7.5,34.4,12.6C1245.6,791.1,1274.6,799.9,1303.2,796z"/>
				<path class="st15" d="M1630.5,593.4c-26-25.4-66.4-27.9-102.7-25.7c-36.3,2.1-74.7,7-107.5-8.6c-18.9-8.9-34.6-24.1-54.3-31
					c-28.9-10.1-61-0.6-88.8,12.3c-27.8,12.9-54.7,29.5-85,34.2c-39.2,6.1-81.9-8-117.6,9.3c-15.7,7.6-28.3,20.7-37.7,35.4
					c-17.7,27.5-25.1,62.5-15,93.6c10.1,31.1,39.6,56.2,72.3,56.5c33.5,0.3,63.1-23.4,96.6-25.6c43.2-2.9,85.4,30.7,127.1,18.6
					c25.7-7.4,43.3-30.4,64.8-46.4c31.2-23.3,72.9-32.1,110.9-23.4c8.7,2,17.5,4.9,26.3,3.7c11.1-1.5,20.3-9.1,30.4-13.7
					c25.1-11.5,65.1-1.4,86.1-20.7C1655.9,643.5,1647.4,610,1630.5,593.4z"/>
				<path class="st14" d="M1482.9,742.7c-3.7-14.6-5.6-32.1-11.4-46c-5.9-14.1-19.1-2.6-25.2,5.8c-21.5,30.1-23.4,69.5-24.2,106.5
					c-0.1,3.6-0.1,7.3,1.4,10.6c2,4.1,6.3,6.7,10.9,7.6c15.8-9.7,35.3-21.9,55-34.9c0.1-0.7,0.1-1.3,0.2-2
					C1490.9,774.2,1486.9,758.3,1482.9,742.7z"/>
			</g>
			<path class="st11" d="M1763.6,972.3c-1.1-3.7-2.3-7.5-5.2-10c-0.9-0.8-2-1.4-3.1-1.9l1-0.3c0,0-159.3-82.5-166.9-103
				c-5.3-14.3-27.2-94.6-39.8-141.5c-9.9-36.8-51.5-55.3-85-37.3c-0.6,0.3-1.1,0.6-1.7,1c-26.3,15-36.5,47.8-24.3,75.5
				c21.6,48.9,61.9,137.8,79.5,147.3c29,15.7,184,60.5,202.2,65.8c1,2.8,2.7,5.8,3.8,8.6c3.4,8.8,4.4,18.4,7.9,27.2
				c0.4,0.9,0.8,1.9,1.7,2.5c1.2,0.7,2.7,0.3,3.8-0.4c4.6-2.7,6-9.2,10.9-11.3c1.8-0.8,3.9-0.9,5.9-1.4c1.9-0.5,3.9-1.9,4.2-3.9
				c0.2-1.5-0.5-3.3,0.5-4.4c0.6-0.7,1.6-0.8,2.5-1.2c2-0.8,3.1-3,3.2-5.1C1764.8,976.4,1764.2,974.3,1763.6,972.3z"/>
			<path class="st11" d="M1639.9,634.3c-6.7,10.6-17,18.3-29,21.7c1.4-5,1.8-8.8,2.3-14c0.3-2.6-2.1-5-4.7-5.6
				c-2.6-0.6-5.3,0.1-7.8,1.1c-2.4,0.9-5,2.2-5.8,4.6c-1.2,3.3,1.3,6.7,3.7,9.3c1,1.1,0.9,2.8,1.8,1.6c0.8,0,1.5,0,2.3-0.1
				c-7.3,5.3-17.2,6.8-24.9,11.7c5.7,6.9,10.7,15.6,12.1,25.5c2.5-0.5,5.1-1.2,7.5-1.9c5.1-1.5,10.2-3.6,15.5-3.2
				c6,0.4,11.4,3.7,17,6c5.6,2.3,12.5,3.3,17.2-0.6c4-3.3,5-9.1,5.1-14.3C1652.3,661.4,1648,646.6,1639.9,634.3z"/>
		</g>
		<g>
			<path class="st13" d="M825.2,392.1c-25.7-0.9-49.2,15.4-66,34.9c-16.8,19.5-29.1,42.5-45.7,62.2c-51,60.4-136.7,81-215.6,76
				c-27.5-1.7-56.1-6-81.8,3.9c-16.6,6.3-30.5,18.1-42.6,31.1c-34.1,36.8-55.4,90.5-38.6,137.8c11.9,33.5,42.4,59.2,76.9,67.6
				s72.3,0.2,101.7-20c12-8.2,22.7-18.3,35.7-24.8c38.8-19.4,86.2-1.9,128.6-11.3c42.1-9.4,74.2-44.6,93.6-83.1
				c19.3-38.6,28.5-81.3,42.7-122c7.6-21.9,17.3-44.2,35.3-58.8c8.5-6.9,18.6-11.9,26.3-19.6C904.6,436.8,855.3,393.2,825.2,392.1z"
				/>
			<path class="st15" d="M759,501.6"/>
			<path class="st16" d="M875.8,498.8l265.9-14.1l-4.1,20.8c0,0-46.3,39.7-88.8,36.3c-42.5-3.4-71-0.3-71-0.3L875.7,588
				C875.7,588,836.5,539,875.8,498.8z"/>
			<path class="st17" d="M973.2,504c-0.5-3.5-1.2-7-2.1-10.3l-95.3,5c-39.3,40.2-0.1,89.2-0.1,89.2l98.2-44.8
				c0.3-1.6,0.5-3.1,0.7-4.7C975.9,527,975,515.3,973.2,504z"/>
			<g>
				<path class="st18" d="M828.2,782.7c25.6-71.2,98-274.6,92.4-283.9c-6.8-11.3-178.2-6.8-178.2-6.8s-47,137.8-75.4,241.5
					c28.9,19.6,60.6,35.1,94.4,43.4C783.2,782.2,805.9,784.4,828.2,782.7z"/>
				<path class="st17" d="M854.9,524.9c4.6-1.4,8.6-4.3,12.5-7.2c10.8-8,21.7-16,32.5-23.9c-31-3.1-89.6-2.9-125.9-2.4
					c18.6,12.1,37.6,24,58.6,31.3C839.8,525.1,847.6,527.1,854.9,524.9z"/>
				<path class="st3" d="M867,870.4c-26.7-35.8-47.6-63.4-47.6-63.4s3.3-9.2,8.8-24.3c-22.3,1.6-45.1-0.5-66.8-5.8
					c-33.8-8.3-65.5-23.8-94.4-43.4c-14.4,52.6-24,96.5-20.3,109.2c4.6,15.5,49,56.5,99.6,99.2C775,903.5,819.6,877.2,867,870.4z"/>
				<path class="st16" d="M984.5,1370.7c0,0,9.9-315.2-3.6-341.5c-8.4-16.4-69.4-99.1-113.9-158.8c-47.4,6.7-92,33-120.7,71.5
					c72.1,60.9,156.9,125.5,156.9,125.5l44.7,333.4h24.7l5.9-5.4l6.1,9h66.4C1050.9,1404.5,1007.7,1376.3,984.5,1370.7z"/>
				<path class="st3" d="M1005,1378.5c-3.5,1.3-6.9,2.9-10.4,4.1c-16.1,5.5-33.4,1.3-49.7-4.2l3,22.4h24.7l5.9-5.4l6.1,9h66.4
					C1050.9,1404.5,1026.9,1388.8,1005,1378.5z"/>
			</g>
			<path class="st3" d="M794,805.3"/>
			<path class="st16" d="M740.1,492l-327.1-96.3v21.4c0,0,47.9,52.9,101.6,62.8c53.6,9.9,88.4,21.8,88.4,21.8l115.7,77
				C718.5,578.6,779.2,543.2,740.1,492z"/>
			<path class="st18" d="M742.4,492l-144.2-41.8c5.9,16.6,7.8,34.5,5.5,51.9l114.9,76.4C718.5,578.6,781.5,543.2,742.4,492z"/>
			<g>
				<path class="st16" d="M848.5,419c-2.9-0.8-6.1-1.5-9.4-2c-6.4,13.5-17.9,24.7-29.6,34.3c-3.6,2.9-7.3,5.8-11.2,8.4
					c0.7,0.2,1.5,0.4,2.2,0.6c-6.3,0.3-11,7.4-9.6,13.6s7.8,10.5,14.1,10.4c6.3-0.1,12.2-4,15.7-9.3c8.9,4.9,2.5,10.5,2.7,15.9
					c0.2,5.5,3.6,10.4,8.8,12.3c11.5,4.2,25.4,7.6,28.4-1.6c0.6-2,21.8-27.4,34.1-28.8c5.2-0.6,9-6.3,9.6-11.5
					C906.3,442.2,863.6,423.3,848.5,419z"/>
			</g>
			<path class="st5" d="M810.9,458.7c5.3-3,10.5-6.2,15.2-10.2c9.4-7.9,16.6-18.4,20.5-30.1c-2.4-0.6-4.9-1.1-7.5-1.5
				c-6.4,13.5-17.9,24.7-29.6,34.3c-3.6,2.9-7.3,5.8-11.2,8.4c0.7,0.2,1.5,0.4,2.2,0.6c-3.1,0.2-5.8,2-7.6,4.5
				c1.6-0.1,3.1-0.3,4.7-0.6C802.2,463.3,806.6,461.1,810.9,458.7z"/>
			<g>
				<path class="st5" d="M603.7,502.2c0.8-5.6,1.1-11.4,1-17.1c-14.5-4.6-29.2-8.7-43.7-12.7c-51-13.9-103.7-27.4-147.9-55.4v0
					c0,0,47.9,52.9,101.6,62.8c53.6,9.9,88.4,21.8,88.4,21.8L714.7,576l0,0L603.7,502.2z"/>
				<path class="st17" d="M734.5,566.5c-8.3,7.8-16,12.1-16,12.1s7.8-4.5,15.9-12.7c-0.2-1.4-0.5-2.8-1-4.1
					c-1.8-5.3-5.8-9.6-9.9-13.5c-0.2-0.2-0.4-0.4-0.6-0.5c-33-30.8-75-48.9-118.4-62.7c0.1,5.7-0.2,11.4-1,17.1l111,73.9
					C699.5,623.1,681,682.4,667,733.5c6.6,4.5,13.4,8.8,20.4,12.8c4.6-14.1,8.9-28.3,13.2-42.5c6.5-21.7,13.1-43.3,19.6-65
					c6.2-20.4,12.3-41,14.3-62.3C734.8,573.2,734.9,569.8,734.5,566.5z"/>
			</g>
			<path class="st16" d="M1175.4,461.4c3.8-4.3,7.4-9,12-11.7c4.6-2.6,10.6-2.6,14.1,2.1c-5.1,22.7-20.3,41.3-38.2,46.7
				c4.3,3.2,8.6,6.4,12.9,9.5c0.9,0.6,1.8,1.3,2.2,2.4c1.2,2.8-1,6.3-3.5,6.7c-2.5,0.3-4.8-1.3-6.9-2.9
				c-10.6-7.8-21.3-12.5-33.5-9.3c-4.3-12.3,0-17.2,7.2-20.4C1152.5,479.8,1166.8,471.2,1175.4,461.4z"/>
			<path class="st16" d="M396.7,382.9c-4.9-4.3-9.5-9-15.4-11.7s-13.6-2.6-18,2.1c6.5,22.7,26,41.3,49,46.7
				c-5.5,3.2-11,6.4-16.5,9.5c-1.1,0.6-2.2,1.3-2.9,2.4c-1.6,2.8,1.3,6.3,4.5,6.7c3.1,0.3,6.1-1.3,8.9-2.9
				c13.6-7.8,27.3-12.5,42.9-9.3c5.6-12.3,0-17.2-9.2-20.4C426.1,401.2,407.9,392.6,396.7,382.9z"/>
		</g>
	</g>
</g>
</svg>
